# Blender 4.3.0
# www.blender.org
mtllib kinf.mtl
o 立方体
v 0.013161 -8.148502 0.582335
v 0.013161 -7.366274 0.611870
v 0.005373 -8.148502 0.410662
v -0.003453 -8.148502 0.582335
v -0.003453 -7.366274 0.611820
v 0.004334 -8.148502 0.410662
v 0.010045 -8.148502 0.444996
v 0.010045 -8.148502 0.479330
v 0.010045 -8.148502 0.513666
v 0.010045 -8.148502 0.548000
v -0.000338 -8.148502 0.548000
v -0.000338 -8.148502 0.513666
v -0.000338 -8.148502 0.479330
v -0.000338 -8.148502 0.444996
v 0.007969 -8.148502 0.582335
v 0.005892 -8.148502 0.582335
v 0.003816 -8.148502 0.582335
v 0.001739 -8.148502 0.582335
v 0.007969 -8.148502 0.479330
v 0.007969 -8.148502 0.513666
v 0.005892 -8.148502 0.479330
v 0.005892 -8.148502 0.513666
v 0.003816 -8.148502 0.479330
v 0.003816 -8.148502 0.513666
v 0.001739 -8.148502 0.479330
v 0.001739 -8.148502 0.513666
v 0.009784 -8.099901 0.466782
v 0.009784 -8.099901 0.521118
v -0.000076 -8.099901 0.466782
v -0.000076 -8.099901 0.521118
v 0.006496 -8.099901 0.466782
v 0.006496 -8.099901 0.521118
v 0.003210 -8.099901 0.466782
v 0.003210 -8.099901 0.521118
v 0.007969 -8.292754 0.479330
v 0.007969 -8.292754 0.513666
v 0.001739 -8.292754 0.479330
v 0.001739 -8.292754 0.513666
v 0.007969 -8.380775 0.511526
v 0.007969 -8.371027 0.513666
v 0.007969 -8.380656 0.511860
v 0.007969 -8.380299 0.512188
v 0.007969 -8.379713 0.512497
v 0.007969 -8.378914 0.512783
v 0.007969 -8.377920 0.513039
v 0.007969 -8.376758 0.513256
v 0.007969 -8.375453 0.513432
v 0.007969 -8.374040 0.513561
v 0.007969 -8.372552 0.513639
v 0.001739 -8.371027 0.513666
v 0.001739 -8.380775 0.511526
v 0.001739 -8.372552 0.513639
v 0.001739 -8.374040 0.513561
v 0.001739 -8.375453 0.513432
v 0.001739 -8.376758 0.513256
v 0.001739 -8.377920 0.513039
v 0.001739 -8.378914 0.512783
v 0.001739 -8.379713 0.512497
v 0.001739 -8.380299 0.512188
v 0.001739 -8.380656 0.511860
v 0.007969 -8.371316 0.479330
v 0.007969 -8.380775 0.481407
v 0.007969 -8.372795 0.479357
v 0.007969 -8.374239 0.479433
v 0.007969 -8.375610 0.479557
v 0.007969 -8.376876 0.479727
v 0.007969 -8.378005 0.479939
v 0.007969 -8.378969 0.480186
v 0.007969 -8.379745 0.480465
v 0.007969 -8.380313 0.480766
v 0.007969 -8.380659 0.481083
v 0.001739 -8.380775 0.481407
v 0.001739 -8.371316 0.479330
v 0.001739 -8.380659 0.481083
v 0.001739 -8.380313 0.480766
v 0.001739 -8.379745 0.480465
v 0.001739 -8.378969 0.480186
v 0.001739 -8.378005 0.479939
v 0.001739 -8.376876 0.479727
v 0.001739 -8.375610 0.479557
v 0.001739 -8.374239 0.479433
v 0.001739 -8.372795 0.479357
v 0.004334 -7.366274 0.466307
v 0.004334 -7.648405 0.410662
v 0.005373 -7.646816 0.410662
v 0.005373 -7.366274 0.465994
vn -0.2839 0.1855 -0.9407
vn 0.0015 0.0377 -0.9993
vn 0.0001 -1.0000 -0.0000
vn 0.8091 0.3870 -0.4423
vn 0.6404 0.5045 -0.5791
vn 0.6675 0.6223 0.4088
vn 0.7703 0.5333 0.3496
vn -0.0000 0.6543 -0.7563
vn -0.8091 0.3870 -0.4423
vn -0.6404 0.5045 -0.5791
vn -0.7703 0.5333 0.3496
vn -0.6675 0.6223 0.4088
vn -0.0000 0.8343 0.5513
vn -0.7463 0.1924 0.6372
vn -0.7286 0.1303 -0.6725
vn -0.6766 0.1362 -0.7236
vn -0.6482 0.2130 0.7311
vn 0.7286 0.1303 -0.6725
vn 0.7463 0.1924 0.6372
vn 0.6482 0.2130 0.7311
vn 0.6766 0.1362 -0.7236
vn -0.0000 0.2500 0.9682
vn -0.0000 0.1516 -0.9884
vn -0.0000 -0.0000 -1.0000
vn -0.0000 0.0086 -1.0000
vn 1.0000 -0.0000 -0.0000
vn -1.0000 -0.0000 -0.0000
vn -0.0000 0.0349 -0.9994
vn -0.0000 0.0716 -0.9974
vn -0.0000 0.1119 -0.9937
vn -0.0000 0.1589 -0.9873
vn -0.0000 0.2167 -0.9762
vn -0.0000 0.2933 -0.9560
vn -0.0000 0.4037 -0.9149
vn -0.0000 0.5757 -0.8176
vn -0.0000 0.8328 -0.5535
vn -0.0000 0.9854 -0.1703
vn -0.0000 0.9852 0.1712
vn -0.0000 0.8327 0.5538
vn -0.0000 0.5762 0.8173
vn -0.0000 0.4037 0.9149
vn -0.0000 0.2934 0.9560
vn -0.0000 0.2166 0.9763
vn -0.0000 0.1588 0.9873
vn -0.0000 0.1120 0.9937
vn -0.0000 0.0716 0.9974
vn -0.0000 0.0349 0.9994
vn -0.0000 0.0086 1.0000
vn -0.0000 -0.0000 1.0000
vn 0.9988 -0.0041 0.0481
vn -0.9988 -0.0041 0.0481
vt 0.625000 0.580577
vt 0.535339 0.500000
vt 0.534831 0.250000
vt 0.625000 0.168967
vt 0.368122 0.731791
vt 0.625000 0.750000
vt 0.625000 1.000000
vt 0.367111 0.989481
vt 0.358335 0.926852
vt 0.352251 0.860480
vt 0.353151 0.805779
vt 0.359807 0.765791
vt 0.875000 0.581033
vt 0.875000 0.750000
vt 0.125000 0.600000
vt 0.175000 0.600000
vt 0.175000 0.650000
vt 0.125000 0.650000
vt 0.125000 0.500000
vt 0.375000 0.500000
vt 0.375000 0.550000
vt 0.375000 0.600000
vt 0.325000 0.600000
vt 0.275000 0.600000
vt 0.225000 0.600000
vt 0.125000 0.550000
vt 0.375000 0.650000
vt 0.325000 0.650000
vt 0.375000 0.700000
vt 0.375000 0.750000
vt 0.325000 0.750000
vt 0.275000 0.750000
vt 0.225000 0.750000
vt 0.175000 0.750000
vt 0.125000 0.750000
vt 0.125000 0.700000
vt 0.225000 0.650000
vt 0.275000 0.650000
vt 0.325000 0.649987
vt 0.325000 0.649949
vt 0.325000 0.649887
vt 0.325000 0.649802
vt 0.325000 0.649696
vt 0.325000 0.648716
vt 0.325000 0.648299
vt 0.325000 0.647847
vt 0.325000 0.647372
vt 0.325000 0.646884
vt 0.325000 0.603023
vt 0.325000 0.602551
vt 0.325000 0.602089
vt 0.325000 0.601651
vt 0.325000 0.601246
vt 0.325000 0.600295
vt 0.325000 0.600193
vt 0.325000 0.600110
vt 0.325000 0.600049
vt 0.325000 0.600012
vt 0.673513 0.999918
vt 0.000082 0.999918
vt 0.000082 0.378978
vt 0.000082 0.040804
vt 0.000584 0.034434
vt 0.002076 0.028220
vt 0.004521 0.022317
vt 0.007860 0.016868
vt 0.012010 0.012009
vt 0.016869 0.007859
vt 0.022317 0.004520
vt 0.028221 0.002075
vt 0.034434 0.000583
vt 0.040804 0.000082
vt 0.631550 0.000082
vt 0.638115 0.000599
vt 0.644518 0.002136
vt 0.650601 0.004656
vt 0.656215 0.008096
vt 0.661223 0.012373
vt 0.665499 0.017380
vt 0.668939 0.022994
vt 0.671459 0.029078
vt 0.672996 0.035481
vt 0.673513 0.042045
vt 0.673513 0.378978
vt 0.175000 0.649987
vt 0.175000 0.649949
vt 0.175000 0.649887
vt 0.175000 0.649802
vt 0.175000 0.649696
vt 0.175000 0.648716
vt 0.175000 0.648299
vt 0.175000 0.647847
vt 0.175000 0.647372
vt 0.175000 0.646884
vt 0.175000 0.603023
vt 0.175000 0.602551
vt 0.175000 0.602089
vt 0.175000 0.601651
vt 0.175000 0.601246
vt 0.175000 0.600295
vt 0.175000 0.600192
vt 0.175000 0.600110
vt 0.175000 0.600049
vt 0.175000 0.600013
vt 0.375000 0.250000
vt 0.375000 0.000000
vt 0.625000 0.000000
vt 0.375000 0.200000
vt 0.375000 0.150000
vt 0.375000 0.100000
vt 0.375000 0.050000
s 1
usemtl kinfMaterial
f 86/1/1 85/2/1 84/3/1 83/4/1
f 4/5/2 5/6/2 2/7/2 1/8/2 15/9/2 16/10/2 17/11/2 18/12/2
f 86/1/3 83/13/3 2/14/3 5/6/3
f 8/15/4 27/16/5 28/17/6 9/18/7
f 3/19/8 6/20/8 14/21/8 13/22/9 29/23/10 33/24/8 31/25/8 27/16/5 8/15/4 7/26/8
f 29/23/10 13/22/9 12/27/11 30/28/12
f 11/29/13 4/30/13 18/31/13 17/32/13 16/33/13 15/34/13 1/35/13 10/36/13 9/18/7 28/17/6 32/37/13 34/38/13 30/28/12 12/27/11
f 19/16/14 20/17/15 28/17/16 27/16/17
f 26/28/18 25/23/19 29/23/20 30/28/21
f 21/25/22 19/16/14 27/16/17 31/25/22
f 20/17/15 22/37/23 32/37/23 28/17/16
f 23/24/22 21/25/22 31/25/22 33/24/22
f 22/37/23 24/38/23 34/38/23 32/37/23
f 25/23/19 23/24/22 33/24/22 29/23/20
f 24/38/23 26/28/18 30/28/21 34/38/23
f 36/17/24 40/17/25 50/28/25 38/28/24 26/28/24 24/38/24 22/37/24 20/17/24
f 38/28/26 50/28/26 52/39/26 53/40/26 54/41/26 55/42/26 56/43/26 57/44/26 58/45/26 59/46/26 60/47/26 51/48/26 72/49/26 74/50/26 75/51/26 76/52/26 77/53/26 78/54/26 79/55/26 80/56/26 81/57/26 82/58/26 73/23/26 37/23/26 25/23/26 26/28/26
f 20/59/27 19/60/27 35/61/27 61/62/27 63/63/27 64/64/27 65/65/27 66/66/27 67/67/27 68/68/27 69/69/27 70/70/27 71/71/27 62/72/27 39/73/27 41/74/27 42/75/27 43/76/27 44/77/27 45/78/27 46/79/27 47/80/27 48/81/27 49/82/27 40/83/27 36/84/27
f 50/28/25 40/17/25 49/85/28 52/39/28
f 52/39/28 49/85/28 48/86/29 53/40/29
f 53/40/29 48/86/29 47/87/30 54/41/30
f 54/41/30 47/87/30 46/88/31 55/42/31
f 55/42/31 46/88/31 45/89/32 56/43/32
f 56/43/32 45/89/32 44/90/33 57/44/33
f 57/44/33 44/90/33 43/91/34 58/45/34
f 58/45/34 43/91/34 42/92/35 59/46/35
f 59/46/35 42/92/35 41/93/36 60/47/36
f 60/47/36 41/93/36 39/94/37 51/48/37
f 62/95/38 72/49/38 51/48/37 39/94/37
f 72/49/38 62/95/38 71/96/39 74/50/39
f 74/50/39 71/96/39 70/97/40 75/51/40
f 75/51/40 70/97/40 69/98/41 76/52/41
f 76/52/41 69/98/41 68/99/42 77/53/42
f 77/53/42 68/99/42 67/100/43 78/54/43
f 78/54/43 67/100/43 66/101/44 79/55/44
f 79/55/44 66/101/44 65/102/45 80/56/45
f 80/56/45 65/102/45 64/103/46 81/57/46
f 81/57/46 64/103/46 63/104/47 82/58/47
f 82/58/47 63/104/47 61/16/48 73/23/48
f 61/16/48 35/16/49 19/16/49 21/25/49 23/24/49 25/23/49 37/23/49 73/23/48
f 6/20/50 85/2/50 86/1/50 5/6/50 4/30/50 11/29/50 12/27/50 13/22/50 14/21/50
f 3/105/49 84/3/49 85/2/49 6/20/49
f 1/106/51 2/107/51 83/4/51 84/3/51 3/105/51 7/108/51 8/109/51 9/110/51 10/111/51
