# Blender 4.3.0
# www.blender.org
mtllib stone1obj.mtl
o Rock_4
v 0.094405 -0.002746 -0.305213
v -0.051334 -0.002734 -0.418504
v -0.110713 0.090465 -0.415114
v -0.110657 0.194854 -0.346349
v -0.238297 0.178194 -0.397705
v -0.396120 0.186108 -0.386253
v -0.500126 0.183189 -0.319207
v -0.567590 0.213552 -0.044941
v -0.588607 0.127512 -0.247099
v -0.530183 0.216012 -0.150412
v -0.232723 0.138523 -0.422976
v -0.383003 0.142298 -0.420465
v -0.506323 0.099496 -0.366062
v -0.535363 0.144654 -0.320466
v -0.623065 0.080114 -0.190755
v -0.634209 -0.002706 -0.133301
v -0.463166 -0.002767 -0.389721
v -0.600707 0.081640 -0.237696
v -0.375202 -0.002597 -0.427077
v -0.114874 0.297724 -0.220162
v -0.185959 0.383781 -0.194330
v -0.248532 0.366587 -0.219434
v -0.335917 0.401241 -0.171512
v -0.479443 0.336284 -0.106713
v -0.352274 0.244720 -0.266696
v -0.067888 0.254186 -0.251313
v -0.208560 0.239051 -0.279116
v -0.312368 0.375035 -0.208517
v -0.562954 0.226606 0.058797
v -0.616418 -0.002690 0.015628
v -0.610988 0.143997 -0.153453
v -0.433190 0.442926 0.079366
v -0.468501 0.388111 0.119460
v -0.190566 0.441903 -0.122173
v -0.199034 0.500765 0.058739
v -0.114478 0.479194 0.026589
v -0.010402 0.484470 0.205558
v -0.171667 0.532862 0.273806
v -0.140960 0.413736 -0.110035
v -0.272491 0.461284 -0.093609
v -0.348536 0.473000 0.161784
v -0.199937 0.517261 0.293292
v -0.391431 0.402600 0.202256
v -0.480153 0.204621 0.212439
v -0.511113 -0.002764 0.189804
v -0.340211 -0.002736 0.421574
v -0.331492 0.157040 0.418312
v -0.260491 0.221332 0.452693
v -0.048960 0.501405 0.334508
v -0.187441 0.453993 0.372452
v -0.164001 -0.002711 0.457324
v -0.010117 0.154350 0.460251
v 0.058991 -0.002733 0.424915
v 0.274085 0.132236 0.455529
v -0.033427 0.217356 0.444916
v 0.044736 0.392541 0.391875
v 0.208587 0.464890 0.170779
v 0.311462 0.216541 0.420063
v 0.480401 0.213857 0.190260
v 0.470056 0.255940 0.151384
v 0.253901 -0.002658 -0.352361
v 0.197373 0.093316 -0.338929
v -0.056243 0.393196 -0.207435
v 0.291201 -0.002697 -0.349741
v 0.231186 0.149141 -0.321078
v -0.074818 0.461498 -0.120346
v -0.077192 0.511320 -0.006169
v 0.069686 0.355937 -0.230673
v 0.071442 0.404276 -0.188630
v 0.000217 0.432558 -0.167659
v 0.251883 0.438785 0.145345
v 0.184139 0.404648 -0.079215
v 0.481123 0.250090 0.112308
v 0.207818 0.458539 0.204824
v 0.414207 0.232663 -0.015746
v -0.002662 0.523104 0.105495
v 0.495666 -0.002773 0.062485
v 0.437481 -0.002767 -0.257638
v 0.242296 0.067908 -0.349179
v 0.407754 0.102557 -0.241690
v 0.421273 0.166279 -0.173724
v 0.215296 0.161028 -0.312041
v 0.167626 0.196691 -0.284930
v 0.336093 0.160656 -0.241160
v 0.503385 0.185908 0.151266
v 0.438552 0.195884 0.273952
v 0.298501 0.182150 0.433812
v 0.289821 -0.002742 0.423281
v 0.496308 0.225653 0.085853
v 0.487460 0.186525 -0.010864
v 0.504557 0.151486 -0.003682
v 0.510810 0.195359 0.091641
v 0.494697 -0.002668 0.172929
v 0.466357 -0.002711 0.222383
v -0.146077 0.137279 0.475240
vn 0.0507 0.5352 -0.8432
vn 0.0281 0.1849 -0.9824
vn 0.3382 0.6750 -0.6557
vn -0.2252 0.3204 -0.9201
vn 0.1013 0.3073 -0.9462
vn -0.1856 0.0248 -0.9823
vn -0.7096 0.3994 -0.5804
vn -0.6371 0.1120 -0.7626
vn -0.8553 -0.0836 -0.5114
vn -0.9948 0.0555 -0.0858
vn -0.9691 0.0795 -0.2335
vn 0.2912 0.6631 -0.6896
vn 0.0017 0.5268 -0.8500
vn 0.0417 0.6106 -0.7908
vn -0.2683 0.5255 -0.8074
vn 0.1959 0.5003 -0.8434
vn -0.2294 0.6256 -0.7456
vn -0.6832 0.6127 -0.3972
vn -0.3606 0.7551 -0.5475
vn 0.2482 0.8295 -0.5004
vn -0.1620 0.9149 -0.3696
vn -0.0220 0.9835 -0.1794
vn 0.0993 0.9940 0.0449
vn -0.0517 0.9819 0.1820
vn 0.1791 0.8519 0.4922
vn 0.3690 0.9294 -0.0001
vn -0.0521 0.9951 0.0842
vn -0.2869 0.5520 0.7829
vn -0.6644 0.5095 0.5468
vn -0.3637 0.2214 0.9048
vn -0.5437 0.0466 0.8380
vn -0.0786 -0.0892 0.9929
vn -0.5989 0.1311 0.7900
vn 0.4120 0.8469 0.3361
vn 0.5544 0.8285 -0.0791
vn 0.7786 0.2902 0.5564
vn 0.5324 0.3750 0.7589
vn 0.1286 0.2064 -0.9700
vn 0.7566 0.2324 -0.6112
vn 0.3754 0.2671 -0.8876
vn 0.4903 0.7652 -0.4172
vn 0.5222 0.7585 -0.3898
vn 0.3148 0.7482 -0.5840
vn 0.7472 0.5714 -0.3394
vn 0.6125 0.6394 -0.4648
vn 0.9753 0.2209 0.0084
vn 0.9944 -0.0871 -0.0590
vn 0.9652 0.1341 -0.2247
vn 0.3805 0.7439 -0.5494
vn 0.6524 0.3926 -0.6483
vn 0.2339 0.6557 -0.7179
vn 0.1078 0.6517 -0.7508
vn 0.3074 0.3091 -0.9000
vn 0.4070 0.2908 -0.8659
vn -0.1795 0.1736 -0.9683
vn 0.0853 0.7211 -0.6875
vn 0.0549 0.7257 -0.6858
vn -0.2435 0.7503 -0.6146
vn -0.2467 0.7266 -0.6412
vn -0.4838 0.7331 -0.4780
vn -0.6470 0.6729 -0.3587
vn -0.8115 0.4149 -0.4115
vn -0.8810 0.4608 -0.1076
vn -0.8080 0.5806 -0.0999
vn -0.9092 0.3409 0.2391
vn -0.5647 -0.0743 -0.8219
vn -0.9450 0.1505 0.2903
vn 0.0163 0.8070 -0.5904
vn -0.6055 0.7958 0.0090
vn -0.7975 0.5196 0.3066
vn -0.8016 0.2079 0.5606
vn -0.4744 0.8581 0.1966
vn -0.2026 0.9726 -0.1139
vn -0.2767 0.9471 -0.1626
vn -0.8322 0.0641 0.5507
vn -0.0476 0.0380 0.9981
vn 0.2171 0.5123 0.8309
vn 0.0534 0.2700 0.9614
vn 0.0765 0.0599 0.9953
vn 0.0529 -0.1997 0.9784
vn 0.3380 0.0304 0.9406
vn 0.4639 0.1454 0.8739
vn 0.4587 -0.1569 0.8746
vn 0.8289 -0.0191 0.5591
vn 0.7371 0.6247 0.2578
vn 0.9521 0.1481 0.2676
vn 0.7560 0.6502 -0.0758
vn 0.1780 0.5567 -0.8114
vn 0.1154 0.8341 -0.5393
vn -0.2791 0.8284 -0.4856
vn 0.7932 0.5870 -0.1620
vn -0.3491 0.8056 0.4788
vn 0.8397 0.3391 0.4240
vn 0.9598 -0.0118 0.2806
vn -0.0816 0.0217 -0.9964
vt 0.457053 0.378637
vt 0.592089 0.393432
vt 0.480795 0.434924
vt 0.444645 0.556970
vt 0.480707 0.505518
vt 0.483448 0.590423
vt 0.379022 0.595455
vt 0.403194 0.601509
vt 0.337608 0.628243
vt 0.296998 0.669073
vt 0.311941 0.634378
vt 0.385311 0.414136
vt 0.426099 0.395830
vt 0.382250 0.439017
vt 0.401896 0.368607
vt 0.414898 0.317579
vt 0.367886 0.463389
vt 0.308327 0.520148
vt 0.353561 0.467504
vt 0.355109 0.403753
vt 0.334335 0.430314
vt 0.282540 0.391485
vt 0.233685 0.324199
vt 0.198740 0.376263
vt 0.191018 0.328343
vt 0.275606 0.244561
vt 0.269391 0.333031
vt 0.160744 0.367560
vt 0.206923 0.455056
vt 0.080140 0.399291
vt 0.024185 0.465015
vt 0.003958 0.364454
vt 0.076349 0.435138
vt 0.264474 0.251114
vt 0.279933 0.228899
vt 0.224935 0.115757
vt 0.160721 0.165672
vt 0.505270 0.215289
vt 0.484673 0.113106
vt 0.525844 0.188282
vt 0.363659 0.264787
vt 0.354873 0.150078
vt 0.397214 0.317530
vt 0.355438 0.117168
vt 0.421766 0.151636
vt 0.310295 0.103633
vt 0.341926 0.029027
vt 0.354265 0.103386
vt 0.450180 0.187919
vt 0.457472 0.149135
vt 0.466390 0.264650
vt 0.474792 0.243379
vt 0.521742 0.470985
vt 0.566700 0.471232
vt 0.499958 0.241510
vt 0.548296 0.280890
vt 0.467834 0.493279
vt 0.435010 0.451404
vt 0.396053 0.507675
vt 0.428451 0.548880
vt 0.384508 0.577055
vt 0.317377 0.564912
vt 0.342415 0.613161
vt 0.300475 0.610143
vt 0.268185 0.567223
vt 0.226854 0.556178
vt 0.438060 0.630985
vt 0.210034 0.648828
vt 0.358893 0.387567
vt 0.249851 0.468982
vt 0.230675 0.485227
vt 0.160097 0.518268
vt 0.232670 0.437075
vt 0.299716 0.369902
vt 0.309099 0.360547
vt 0.110924 0.584501
vt 0.059761 0.349778
vt 0.168532 0.288684
vt 0.094220 0.301290
vt 0.075635 0.288398
vt 0.024245 0.242387
vt 0.126132 0.175025
vt 0.148700 0.170665
vt 0.088085 0.133856
vt 0.196093 0.038330
vt 0.285326 0.120083
vt 0.284056 0.095209
vt 0.301307 0.118938
vt 0.474931 0.232922
vt 0.383406 0.344757
vt 0.358628 0.361922
vt 0.311588 0.114620
vt 0.191141 0.376304
vt 0.266078 0.107805
vt 0.258064 0.023949
vt 0.530534 0.211243
s 1
usemtl 31.001
f 26/1/1 1/2/2 4/3/3
f 12/4/4 11/5/5 19/6/6
f 14/7/7 12/4/4 13/8/8
f 18/9/9 16/10/10 15/11/11
f 21/12/12 20/13/13 22/14/14
f 63/15/15 68/16/16 20/13/13
f 28/17/17 24/18/18 23/19/19
f 34/20/20 23/19/19 40/21/21
f 40/21/21 35/22/22 34/20/20
f 37/23/23 38/24/24 49/25/25
f 37/23/23 57/26/26 76/27/27
f 50/28/28 43/29/29 48/30/30
f 46/31/31 51/32/32 47/33/33
f 74/34/34 71/35/35 57/26/26
f 71/35/35 76/27/27 57/26/26
f 86/36/36 74/34/34 58/37/37
f 79/38/38 78/39/39 64/40/40
f 72/41/41 75/42/42 69/43/43
f 90/44/44 81/45/45 75/42/42
f 92/46/46 77/47/47 91/48/48
f 84/49/49 81/45/45 80/50/50
f 83/51/51 84/49/49 82/52/52
f 3/53/53 1/2/2 2/54/54
f 62/55/55 1/56/2 26/1/1
f 3/53/53 19/6/6 11/5/5
f 4/3/3 11/5/5 5/57/56
f 27/58/57 4/3/3 5/57/56
f 25/59/58 5/57/56 6/60/59
f 5/57/56 12/4/4 6/60/59
f 25/59/58 7/61/60 10/62/61
f 7/61/60 12/4/4 14/7/7
f 7/61/60 9/63/62 10/62/61
f 31/64/63 10/62/61 9/63/62
f 24/18/18 8/65/64 29/66/65
f 29/66/65 8/65/64 31/64/63
f 9/63/62 15/11/11 31/64/63
f 18/9/9 14/7/7 13/8/8
f 24/18/18 25/59/58 10/62/61
f 17/67/66 12/4/4 19/6/6
f 18/9/9 17/67/66 16/10/10
f 15/11/11 16/10/10 30/68/67
f 20/13/13 27/58/57 22/14/14
f 26/1/1 68/16/16 83/51/51
f 21/12/12 39/69/68 20/13/13
f 39/69/68 63/15/15 20/13/13
f 25/59/58 22/14/14 27/58/57
f 40/21/21 24/18/18 32/70/69
f 33/71/70 24/18/18 29/66/65
f 44/72/71 29/66/65 30/68/67
f 33/71/70 44/72/71 43/29/29
f 32/70/69 43/29/29 41/73/72
f 32/70/69 35/22/22 40/21/21
f 36/74/73 34/20/20 35/22/22
f 37/23/23 35/22/22 38/24/24
f 41/73/72 38/24/24 35/22/22
f 76/27/27 36/74/73 37/23/23
f 67/75/74 39/69/68 36/74/73
f 74/34/34 37/23/23 49/25/25
f 38/24/24 50/28/28 49/25/25
f 47/33/33 43/29/29 44/72/71
f 46/31/31 44/72/71 45/76/75
f 48/30/30 47/33/33 95/77/76
f 56/78/77 50/28/28 48/30/30
f 95/77/76 55/79/78 48/30/30
f 74/34/34 49/25/25 56/78/77
f 52/80/79 51/32/32 53/81/80
f 53/81/80 54/82/81 52/80/79
f 52/80/79 87/83/82 55/79/78
f 87/83/82 88/84/83 94/85/84
f 86/36/36 87/83/82 94/85/84
f 86/36/36 60/86/85 74/34/34
f 60/86/85 85/87/86 73/88/87
f 60/86/85 71/35/35 74/34/34
f 79/38/38 62/55/55 65/89/88
f 70/90/89 68/16/16 63/15/15
f 70/90/89 66/91/90 67/75/74
f 65/89/88 84/49/49 80/50/50
f 79/38/38 80/50/50 78/39/39
f 83/51/51 69/43/43 75/42/42
f 72/41/41 76/27/27 71/35/35
f 71/35/35 75/42/42 72/41/41
f 89/92/91 75/42/42 73/88/87
f 89/92/91 85/87/86 92/46/46
f 78/39/39 80/50/50 91/48/48
f 85/87/86 77/47/47 92/46/46
f 75/42/42 84/49/49 83/51/51
f 42/93/92 43/29/29 50/28/28
f 72/41/41 70/90/89 67/75/74
f 23/19/19 21/12/12 28/17/17
f 28/17/17 21/12/12 22/14/14
f 87/83/82 56/78/77 55/79/78
f 56/78/77 48/30/30 55/79/78
f 94/85/84 59/94/93 86/36/36
f 59/94/93 93/95/94 85/87/86
f 79/38/38 61/96/95 62/55/55
f 62/55/55 82/52/52 65/89/88
f 83/51/51 82/52/52 26/1/1
f 81/45/45 91/48/48 80/50/50
f 90/44/44 92/46/46 91/48/48
f 56/78/77 58/37/37 74/34/34
f 47/33/33 51/32/32 95/77/76
f 30/68/67 31/64/63 15/11/11
f 30/68/67 45/76/75 44/72/71
f 31/64/63 30/68/67 29/66/65
f 91/48/48 77/47/47 78/39/39
f 3/53/53 4/3/3 1/2/2
f 62/55/55 61/96/95 1/56/2
f 3/53/53 2/54/54 19/6/6
f 4/3/3 3/53/53 11/5/5
f 27/58/57 26/1/1 4/3/3
f 25/59/58 27/58/57 5/57/56
f 5/57/56 11/5/5 12/4/4
f 25/59/58 6/60/59 7/61/60
f 7/61/60 6/60/59 12/4/4
f 7/61/60 14/7/7 9/63/62
f 31/64/63 8/65/64 10/62/61
f 24/18/18 10/62/61 8/65/64
f 9/63/62 18/9/9 15/11/11
f 18/9/9 9/63/62 14/7/7
f 24/18/18 28/17/17 25/59/58
f 17/67/66 13/8/8 12/4/4
f 18/9/9 13/8/8 17/67/66
f 20/13/13 26/1/1 27/58/57
f 26/1/1 20/13/13 68/16/16
f 21/12/12 34/20/20 39/69/68
f 39/69/68 66/91/90 63/15/15
f 25/59/58 28/17/17 22/14/14
f 40/21/21 23/19/19 24/18/18
f 33/71/70 32/70/69 24/18/18
f 33/71/70 29/66/65 44/72/71
f 32/70/69 33/71/70 43/29/29
f 32/70/69 41/73/72 35/22/22
f 36/74/73 39/69/68 34/20/20
f 37/23/23 36/74/73 35/22/22
f 41/73/72 42/93/92 38/24/24
f 76/27/27 67/75/74 36/74/73
f 67/75/74 66/91/90 39/69/68
f 74/34/34 57/26/26 37/23/23
f 38/24/24 42/93/92 50/28/28
f 47/33/33 48/30/30 43/29/29
f 46/31/31 47/33/33 44/72/71
f 56/78/77 49/25/25 50/28/28
f 95/77/76 52/80/79 55/79/78
f 52/80/79 95/77/76 51/32/32
f 53/81/80 88/84/83 54/82/81
f 52/80/79 54/82/81 87/83/82
f 87/83/82 54/82/81 88/84/83
f 86/36/36 58/37/37 87/83/82
f 86/36/36 59/94/93 60/86/85
f 60/86/85 59/94/93 85/87/86
f 60/86/85 73/88/87 71/35/35
f 70/90/89 69/43/43 68/16/16
f 70/90/89 63/15/15 66/91/90
f 65/89/88 82/52/52 84/49/49
f 79/38/38 65/89/88 80/50/50
f 83/51/51 68/16/16 69/43/43
f 72/41/41 67/75/74 76/27/27
f 71/35/35 73/88/87 75/42/42
f 89/92/91 90/44/44 75/42/42
f 89/92/91 73/88/87 85/87/86
f 85/87/86 93/95/94 77/47/47
f 75/42/42 81/45/45 84/49/49
f 42/93/92 41/73/72 43/29/29
f 72/41/41 69/43/43 70/90/89
f 23/19/19 34/20/20 21/12/12
f 87/83/82 58/37/37 56/78/77
f 94/85/84 93/95/94 59/94/93
f 79/38/38 64/40/40 61/96/95
f 62/55/55 26/1/1 82/52/52
f 81/45/45 90/44/44 91/48/48
f 90/44/44 89/92/91 92/46/46
